<?xml version='1.0' encoding='iso-8859-1'?>
<!DOCTYPE svg PUBLIC '-//W3C//DTD SVG 1.1//EN' 'http://www.w3.org/Graphics/SVG/1.1/DTD/svg11.dtd'>
<svg version="1.1" xmlns="http://www.w3.org/2000/svg" viewBox="0 0 285.563 285.563" xmlns:xlink="http://www.w3.org/1999/xlink" enable-background="new 0 0 285.563 285.563">
  <g>
    <path d="m285.563,123.53c0-41.433-33.708-75.141-75.141-75.141-18.647,0-35.729,6.83-48.877,18.116l7.121-32.343c0.891-4.045-1.666-8.047-5.712-8.938-4.045-0.89-8.047,1.668-8.937,5.712l-11.15,50.642-11.039-50.355c-0.888-4.046-4.891-6.609-8.932-5.72-4.046,0.887-6.607,4.886-5.72,8.932l7.076,32.277c-13.181-11.408-30.352-18.323-49.111-18.323-41.433,0-75.141,33.708-75.141,75.141 0,40.765 32.63,74.052 73.144,75.114-3.525,6.134-5.503,13.19-5.503,20.551 0,22.784 18.536,41.32 41.32,41.32 13.967,0 26.337-6.965 33.82-17.605 7.482,10.64 19.852,17.605 33.82,17.605 22.784,0 41.32-18.536 41.32-41.32 0-7.361-1.977-14.417-5.503-20.551 40.515-1.062 73.145-34.349 73.145-75.114zm-176.602,121.985c-14.513,0-26.32-11.807-26.32-26.32 0-11.005 6.938-20.941 17.266-24.725 3.866-1.416 5.867-5.685 4.484-9.563-1.384-3.878-5.636-5.914-9.524-4.564-6.358,2.208-12.995,3.327-19.726,3.327-33.162-2.84217e-14-60.141-26.979-60.141-60.14 0-33.162 26.979-60.141 60.141-60.141 28.925,0 53.14,20.528 58.857,47.778l.073,.335c0.792,3.887 1.21,7.909 1.21,12.027v95.665c0,14.514-11.807,26.321-26.32,26.321zm101.461-61.845c-6.73,0-13.367-1.12-19.726-3.327-3.892-1.35-8.141,0.687-9.523,4.564-1.384,3.878 0.617,8.146 4.483,9.563 10.327,3.784 17.266,13.72 17.266,24.725 0,14.513-11.808,26.32-26.32,26.32-14.513,0-26.32-11.807-26.32-26.32v-95.665c0-3.005 0.228-5.957 0.655-8.844l1.759-7.985c7.299-24.993 30.406-43.311 57.727-43.311 33.162,0 60.141,26.979 60.141,60.141-0.001,33.16-26.98,60.139-60.142,60.139z"/>
    <path d="m210.422,90.664c-18.122,0-32.865,14.743-32.865,32.865 0,18.122 14.743,32.865 32.865,32.865 18.122,0 32.865-14.743 32.865-32.865 0-18.121-14.743-32.865-32.865-32.865zm0,50.731c-9.851,0-17.865-8.014-17.865-17.865 0-9.851 8.015-17.865 17.865-17.865 9.851,0 17.865,8.014 17.865,17.865 0,9.851-8.015,17.865-17.865,17.865z"/>
    <path d="m75.141,90.664c-18.122,0-32.865,14.743-32.865,32.865 0,18.122 14.743,32.865 32.865,32.865 18.122,0 32.865-14.743 32.865-32.865 0-18.121-14.743-32.865-32.865-32.865zm0,50.731c-9.851,0-17.865-8.014-17.865-17.865 0-9.851 8.014-17.865 17.865-17.865 9.851,0 17.865,8.014 17.865,17.865 0,9.851-8.014,17.865-17.865,17.865z"/>
  </g>
</svg>
