<?xml version='1.0' encoding='iso-8859-1'?>
<!DOCTYPE svg PUBLIC '-//W3C//DTD SVG 1.1//EN' 'http://www.w3.org/Graphics/SVG/1.1/DTD/svg11.dtd'>
<svg version="1.1" xmlns="http://www.w3.org/2000/svg" viewBox="0 0 315.628 315.628" xmlns:xlink="http://www.w3.org/1999/xlink" enable-background="new 0 0 315.628 315.628">
  <path d="m306.992,69.712c-5.648-5.645-13.729-8.628-23.369-8.628-23.452,0-55.061,17.037-82.493,44.462-6.292,6.292-12.079,12.878-17.264,19.582-1.845-6.664-6.177-12.302-11.936-15.843l32.276-32.277c2.929-2.929 2.929-7.678 0-10.606-2.93-2.929-7.678-2.929-10.607,0l-35.786,35.787-35.473-35.477c-2.929-2.929-7.678-2.929-10.606,0-2.929,2.929-2.929,7.677 0,10.606l31.963,31.964c-5.759,3.54-10.092,9.177-11.939,15.838-5.184-6.702-10.969-13.285-17.26-19.576-27.431-27.424-59.04-44.46-82.492-44.46-9.64,0-17.721,2.983-23.37,8.629-10.142,10.137-11.395,27.236-3.527,48.149 7.137,18.971 21.115,39.463 39.355,57.7 4.152,4.154 8.593,8.214 13.25,12.117-2.076,5.545-3.157,11.446-3.157,17.352 0,27.302 22.212,49.514 49.514,49.514 14.395,0 27.37-6.179 36.425-16.019 3.107,6.448 9.691,10.919 17.317,10.919 7.625,0 14.207-4.476 17.309-10.928 9.056,9.845 22.034,16.027 36.433,16.027 27.302,0 49.514-22.212 49.514-49.514 0-5.909-1.081-11.81-3.155-17.353 4.654-3.901 9.095-7.961 13.247-12.115 18.242-18.238 32.22-38.73 39.357-57.701 7.869-20.912 6.617-38.011-3.526-48.149zm-161.219,62.621c0-6.638 5.401-12.039 12.041-12.039 6.636,0 12.035,5.401 12.035,12.039 0,6.636-5.398,12.035-12.035,12.035-6.64,0-12.041-5.398-12.041-12.035zm-41.701,107.211c-19.031,0-34.514-15.483-34.514-34.514 0-5.632 1.338-11.033 3.977-16.053 1.678-3.192 0.847-7.127-1.979-9.367-5.866-4.65-11.412-9.581-16.484-14.655-16.764-16.761-29.522-35.361-35.923-52.376-5.589-14.856-5.556-26.614 0.09-32.258 2.814-2.813 7.11-4.238 12.767-4.238 19.323,0 47.54,15.728 71.886,40.068 15.712,15.712 27.985,33.191 34.693,49.377v38.771c-0.01,0.161-0.016,0.322-0.016,0.484 0,0.164 0.005,0.326 0.015,0.488-0.132,18.921-15.563,34.273-34.512,34.273zm53.742-5.099c-2.332,0-4.229-1.893-4.229-4.219v-25.461-40.699-5.03c1.378,0.218 2.79,0.333 4.229,0.333 1.434,0 2.842-0.115 4.216-0.331v71.189c0,2.325-1.892,4.218-4.216,4.218zm138.665-121.865c-6.401,17.014-19.159,35.615-35.926,52.377-5.073,5.075-10.619,10.006-16.482,14.654-2.827,2.241-3.658,6.176-1.979,9.369 2.638,5.015 3.976,10.415 3.976,16.051 0,19.031-15.482,34.514-34.514,34.514-18.948,0-34.379-15.352-34.511-34.271 0.01-0.162 0.015-0.324 0.015-0.489 0-0.162-0.005-0.323-0.016-0.484v-38.771c6.708-16.186 18.981-33.665 34.692-49.377 24.347-24.341 52.564-40.069 71.887-40.069 5.656,0 9.951,1.426 12.766,4.238 5.649,5.644 5.682,17.402 0.092,32.258z"/>
</svg>
