<?xml version='1.0' encoding='iso-8859-1'?>
<!DOCTYPE svg PUBLIC '-//W3C//DTD SVG 1.1//EN' 'http://www.w3.org/Graphics/SVG/1.1/DTD/svg11.dtd'>
<svg version="1.1" xmlns="http://www.w3.org/2000/svg" viewBox="0 0 259.598 259.598" xmlns:xlink="http://www.w3.org/1999/xlink" enable-background="new 0 0 259.598 259.598">
  <path d="m225.755,223.032l14.321-14.321c2.929-2.93 2.929-7.678 0-10.607-2.929-2.928-7.678-2.928-10.606,0l-11.832,11.832c-4.634-5.706-11.604-8.787-19.087-8.253-2.872,0.21-5.625,0.316-8.187,0.316-0.001,0-0.002,0-0.003,0-0.348,0-0.683-0.009-1.025-0.013v-6.325c0-4.143-3.358-7.5-7.5-7.5-4.142,0-7.5,3.357-7.5,7.5v4.455c-3.049-0.857-5.669-2.008-7.856-3.444l3.882-3.883c2.929-2.93 2.929-7.678 0-10.607-2.929-2.928-7.678-2.928-10.606,0l-2.324,2.324c-1.441-3.707-2.486-7.972-3.257-12.646l6.914-2.51c3.893-1.413 5.904-5.715 4.491-9.608-1.413-3.895-5.714-5.903-9.609-4.491l-3.408,1.237c-0.306-5.047-0.473-10.333-0.591-15.748h5.467c4.142,0 7.5-3.357 7.5-7.5 0-4.143-3.358-7.5-7.5-7.5h-5.749c-0.235-11.51-0.653-23.065-2.145-34.18l6.515-2.103c3.942-1.272 6.106-5.499 4.833-9.441-1.272-3.942-5.499-6.106-9.441-4.834l-4.702,1.518c-2.783-11.115-7.186-21.503-14.255-30.594-0.387-0.498-0.791-0.983-1.192-1.47l4.194-4.194c2.929-2.93 2.929-7.678 0-10.607-2.929-2.928-7.678-2.928-10.606,0l-4.404,4.404c-11.032-8.441-24.627-13.341-41.238-14.796v-5.629c0-4.143-3.358-7.5-7.5-7.5-4.142,0-7.5,3.357-7.5,7.5v5.224c-2.431,0.066-4.895,0.17-7.437,0.355-4.464,0.327-8.633,1.938-12.097,4.618l-13.63-20.643c-2.283-3.457-6.935-4.408-10.392-2.126-3.457,2.282-4.409,6.935-2.126,10.392l17.666,26.756c-0.255,1.664-0.346,3.365-0.22,5.087 0.059,0.792 0.172,1.572 0.311,2.346l-17.75,26.785c-2.288,3.453-1.344,8.106 2.109,10.395 1.274,0.845 2.713,1.249 4.136,1.249 2.431,0 4.816-1.18 6.259-3.358l13.93-21.023c4.274,3.196 9.585,4.802 15.083,4.401 1.427-0.104 2.804-0.173 4.157-0.225v6.35c0,4.143 3.358,7.5 7.5,7.5 4.142,0 7.5-3.357 7.5-7.5v-5.643c3.182,0.506 6.004,1.259 8.473,2.248l-2.62,2.62c-2.929,2.93-2.929,7.678 0,10.607 1.464,1.464 3.384,2.196 5.303,2.196 1.919,0 3.839-0.732 5.303-2.196l3.347-3.347c2.141,3.778 3.663,8.411 4.754,13.675l-6.457,2.084c-3.942,1.272-6.106,5.499-4.833,9.441 1.025,3.177 3.968,5.198 7.136,5.198 0.763,0 1.539-0.117 2.305-0.364l3.856-1.244c0.495,6.324 0.717,13.093 0.866,20.065h-5.48c-4.142,0-7.5,3.357-7.5,7.5 0,4.143 3.358,7.5 7.5,7.5h5.761c0.222,10.635 0.613,21.302 1.873,31.619l-6.873,2.495c-3.894,1.413-5.904,5.715-4.491,9.608 1.106,3.05 3.984,4.943 7.05,4.943 0.85,0 1.714-0.146 2.559-0.452l4.349-1.579c2.53,10.881 6.542,21.103 12.984,30.149l-4.635,4.635c-2.929,2.93-2.929,7.678 0,10.607 1.464,1.464 3.384,2.196 5.303,2.196 1.92,0 3.839-0.732 5.303-2.196l4.075-4.075c10.574,9.36 23.719,15.064 39.876,17.257v6.151c0,4.143 3.358,7.5 7.5,7.5 4.142,0 7.5-3.357 7.5-7.5v-5.125c0.381,0.003 0.751,0.019 1.135,0.019 3.635,0 7.456-0.145 11.354-0.429 6.985-0.51 13-4.174 16.753-9.495l10.893,10.892c1.464,1.464 3.384,2.196 5.303,2.196 1.919,0 3.839-0.732 5.303-2.196 2.929-2.93 2.929-7.678 0-10.607l-14.321-14.318zm-166.758-173.72c-2.525,0.172-4.923-0.892-6.472-2.884-0.906-1.165-1.443-2.567-1.553-4.049-0.146-2 0.495-3.936 1.801-5.448 1.331-1.539 3.107-2.431 5.132-2.579 2.17-0.159 4.272-0.252 6.343-0.314v14.993c-1.708,0.059-3.46,0.15-5.251,0.281zm20.251,.28v-15.085c12.237,1.257 22.338,4.71 30.523,10.445l-10.857,10.858c-5.371-3.194-11.886-5.259-19.666-6.218zm30.672,16.425l10.72-10.721c0.003,0.004 0.006,0.007 0.009,0.011 5.773,7.424 9.418,16.302 11.751,26.024l-14.267,4.604c-1.717-7.585-4.295-14.345-8.213-19.918zm10.53,34.933l14.54-4.692c1.126,9.521 1.487,19.502 1.695,29.481h-15c-0.181-8.592-0.467-16.95-1.235-24.789zm1.515,39.789h15.001c0.156,7.252 0.395,14.33 0.939,21.067l-14.547,5.28c-0.883-8.562-1.203-17.454-1.393-26.347zm3.72,41.461l14.202-5.155c1.34,6.952 3.318,13.28 6.271,18.733l-10.942,10.942c-4.625-7.207-7.597-15.534-9.531-24.52zm19.412,35.852l10.643-10.643c4.952,3.93 11.111,6.629 18.595,8.138v15.233c-11.855-1.916-21.514-6.142-29.238-12.728zm55.635,13.55c-3.972,0.291-7.756,0.4-11.397,0.367v-14.985c0.344,0.003 0.677,0.015 1.025,0.015 0.001,0 0.002,0 0.003,0 2.924,0 6.046-0.119 9.275-0.355 2.533-0.183 4.928,0.893 6.474,2.882 0.909,1.169 1.446,2.571 1.555,4.053 0.302,4.122-2.809,7.722-6.935,8.023z"/>
</svg>
