<?xml version='1.0' encoding='iso-8859-1'?>
<!DOCTYPE svg PUBLIC '-//W3C//DTD SVG 1.1//EN' 'http://www.w3.org/Graphics/SVG/1.1/DTD/svg11.dtd'>
<svg version="1.1" xmlns="http://www.w3.org/2000/svg" viewBox="0 0 231.424 231.424" xmlns:xlink="http://www.w3.org/1999/xlink" enable-background="new 0 0 231.424 231.424">
  <path d="m198.478,138.767c1.989,0 3.896-0.79 5.303-2.197l25.446-25.445c2.929-2.929 2.929-7.677 0-10.606-2.928-2.929-7.677-2.929-10.606,0l-23.249,23.249h-25.589c-3.297-5.899-6.695-10.966-9.656-15h18.351c1.989,0 3.896-0.79 5.303-2.197l25.446-25.445c2.929-2.929 2.929-7.677 0-10.606-2.929-2.93-7.678-2.929-10.606,0l-23.249,23.249h-27.992c-3.651-3.714-7.541-7.211-11.484-10.163 0.303-0.211 0.606-0.422 0.902-0.642h7.332c15.681,0 28.438-12.757 28.438-28.438 0-15.682-12.757-28.44-28.438-28.44h-7.334c-5.895-4.382-13.191-6.979-21.084-6.979-7.893,0-15.19,2.597-21.085,6.979h-7.334c-15.681,0-28.438,12.758-28.438,28.44 0,15.681 12.757,28.438 28.438,28.438h7.332c0.296,0.22 0.599,0.431 0.902,0.642-3.943,2.952-7.833,6.449-11.484,10.163h-27.99l-23.25-23.249c-2.929-2.93-7.678-2.929-10.606,0-2.929,2.929-2.929,7.678 0,10.606l25.446,25.445c1.407,1.407 3.314,2.197 5.303,2.197h18.35c-2.961,4.034-6.359,9.101-9.656,15h-25.587l-23.25-23.249c-2.929-2.93-7.678-2.929-10.606,0-2.929,2.929-2.929,7.678 0,10.606l25.446,25.445c1.407,1.407 3.314,2.197 5.303,2.197h21.515c-4.008,10.037-6.943,21.415-7.242,33.515l-24.483,24.483c-2.929,2.929-2.929,7.678 0,10.607 1.464,1.464 3.384,2.197 5.303,2.197 1.92,0 3.839-0.732 5.303-2.197l17.286-17.286c6.005,13.104 19.237,22.232 34.569,22.232 12.484,0 23.58-6.05 30.515-15.37 6.934,9.32 18.029,15.37 30.513,15.37 15.332,0 28.564-9.129 34.57-22.233l17.288,17.287c1.465,1.464 3.384,2.196 5.303,2.196 1.92,0 3.839-0.732 5.304-2.197 2.929-2.929 2.928-7.678 0-10.607l-24.485-24.483c-0.299-12.099-3.234-23.477-7.242-33.514h21.515zm-40.91-84.243c0,5.761-3.65,10.671-8.753,12.578 1.492-3.911 2.316-8.149 2.316-12.578 0-4.43-0.825-8.669-2.316-12.581 5.103,1.908 8.753,6.82 8.753,12.581zm-21.437,0c0,11.258-9.16,20.418-20.419,20.418-11.259,0-20.419-9.16-20.419-20.418s9.16-20.418 20.419-20.418c11.259-7.10543e-15 20.419,9.16 20.419,20.418zm-62.275,0c0-5.762 3.65-10.673 8.754-12.581-1.492,3.912-2.316,8.151-2.316,12.581 0,4.429 0.824,8.667 2.316,12.578-5.104-1.906-8.754-6.817-8.754-12.578zm11.341,142.793c-12.689,0-23.013-10.323-23.013-23.012 0-18.387 8.257-39.747 22.655-58.605 2.606-3.413 5.18-6.442 7.673-9.127 0.018-0.018 0.033-0.037 0.05-0.055 5.945-6.395 11.412-10.785 15.649-13.427v81.215c0.001,12.688-10.323,23.011-23.014,23.011zm61.028,0c-12.689,0-23.013-10.323-23.013-23.012v-81.214c4.236,2.642 9.702,7.031 15.646,13.425 0.018,0.019 0.034,0.039 0.052,0.057 2.493,2.685 5.067,5.714 7.673,9.127 14.397,18.858 22.655,40.219 22.655,58.605 0,12.689-10.323,23.012-23.013,23.012z"/>
</svg>
